<?xml version="1.0" encoding="UTF-8"?>
<svg width="558px" height="585px" viewBox="0 0 558 585" version="1.1" xmlns="http://www.w3.org/2000/svg" xmlns:xlink="http://www.w3.org/1999/xlink">
    <title>Combined Shape</title>
    <g id="Page-1" stroke="none" stroke-width="1" fill="none" fill-rule="evenodd">
        <path d="M12.6048223,23.7778636 C30.2828587,0.769135448 61.7373417,-6.55371326 87.7520388,6.2830061 C113.766736,19.1197255 127.106164,48.5457286 119.620974,76.5840257 L119.620974,76.5840257 L310.320126,225.176856 C331.122709,208.439764 355.975898,197.498828 382.363629,193.461675 L382.363629,193.461675 L382.363629,123.940557 C363.628933,115.186087 351.620666,96.4066577 351.52901,75.7190662 L351.52901,75.7190662 L351.52901,74.0972672 C351.608178,44.6120168 375.478928,20.729188 404.949267,20.6499794 L404.949267,20.6499794 L406.570246,20.6499794 C436.040584,20.729188 459.911334,44.6120168 459.990503,74.0972672 L459.990503,74.0972672 L459.990503,75.7190662 C459.898847,96.4066577 447.890579,115.186087 429.155884,123.940557 L429.155884,123.940557 L429.155884,193.317516 L429.047818,193.317516 C491.825399,203.025788 541.973359,250.723519 554.838144,312.961724 C567.702929,375.19993 540.578316,438.886253 486.799209,472.711457 C433.020102,506.536661 363.899411,503.385315 313.417997,464.806672 L313.417997,464.806672 L256.971912,521.281318 C258.432788,525.863336 259.209625,530.636015 259.277304,535.44503 C259.277304,562.813484 237.102009,585 209.747396,585 C182.392783,585 160.217488,562.813484 160.217488,535.44503 C160.217488,508.076575 182.392783,485.89006 209.747396,485.89006 C214.553794,485.95987 219.323754,486.737051 223.903945,488.196618 L223.903945,488.196618 L280.962399,431.109293 C244.987935,379.904283 244.058621,311.872676 278.620985,259.703156 L278.620985,259.703156 L91.127769,113.669163 C65.970746,128.116116 34.1184914,122.785357 15.030245,100.933562 C-4.05800133,79.0817682 -5.07321416,46.7865918 12.6048223,23.7778636 Z M416.55311,251.31654 L364.177566,431.328557 C363.486975,433.778517 364.868158,436.343628 367.324011,437.032667 L390.729931,443.809031 C393.18541,444.536579 395.718078,443.119992 396.44689,440.669659 L448.822434,260.657642 C449.513025,258.207682 448.131842,255.642571 445.675989,254.953532 L422.270069,248.177167 C419.81459,247.488128 417.243701,248.866207 416.55311,251.31654 Z M341.595083,290.260419 L286.463304,342.113103 C284.512232,343.918419 284.512232,347.02943 286.463304,348.834747 L341.595083,400.72569 C343.469562,402.492747 346.377488,402.415854 348.099153,400.533643 L364.74192,382.711909 C366.501695,380.829698 366.386992,377.833841 364.435547,376.105418 L329.772831,345.493055 L364.435547,314.880691 C366.386992,313.152269 366.539805,310.156411 364.74192,308.2742 L348.099153,290.452466 C346.377488,288.60889 343.469562,288.493362 341.595083,290.260419 Z M465.900847,290.437052 L449.25808,308.254586 C447.498305,310.136313 447.613008,313.131402 449.564453,314.859381 L484.227169,345.502135 L449.564453,376.106639 C447.613008,377.834618 447.460195,380.829707 449.25808,382.711434 L465.900847,400.528593 C467.622512,402.410321 470.530438,402.487195 472.404917,400.759216 L527.536696,348.881219 C529.487768,347.076366 529.487768,343.966154 527.536696,342.1613 L472.404917,290.245054 C470.568548,288.517075 467.660996,288.593949 465.900847,290.437052 Z" id="Combined-Shape" fill="#1E1E1E" fill-rule="nonzero"></path>
    </g>
</svg>